<svg id="Vrstva_1" data-name="Vrstva 1" xmlns="http://www.w3.org/2000/svg" viewBox="0 0 859.48111 733.54188">
  <defs>
    <style>
      .cls-1 {       
        fill:#ff6000;
      }
    </style>
  </defs>
  <path class="cls-1" d="M668.30951,24.95868c31.26831-.188,62.591-.69045,93.79742.83675C793.172,27.31569,822.53241,35.6093,847.193,56.07381c18.41724,15.28346,30.341,34.42148,34.50336,58.1611,1.14447,6.52731,3.00164,13.01317,3.35345,19.58111,1.318,24.61036-6.27106,47.439-16.66724,69.07056C836.83471,268.52943,811.302,336.69975,782.88739,403.6548c-20.95832,49.385-39.901,99.69363-62.59,148.2609-38.99884,83.47961-100.53265,145.059-186.543,180.332-31.24982,12.81555-63.89838,21.133-97.78754,23.5188-15.72912,1.1073-31.48809,2.45074-47.2373,2.50085-71.4462.22723-137.15711-19.475-196.65561-58.90125-55.70381-36.91174-99.86185-84.507-129.92187-144.56762-17.11174-34.18958-27.60833-70.33075-32.921-108.22779a394.8928,394.8928,0,0,1-2.56283-79.94546c3.47713-55.06955,19.51008-106.57428,47.16862-154.321,36.33807-62.73013,85.95068-111.80435,150.90375-144.73248A352.23583,352.23583,0,0,1,346.9743,31.22232c57.79773-6.27125,115.79334-5.59521,173.78412-5.396,23.68463.08136,47.36975.01345,71.05469.01345C591.81176,26.13953,642.8067,25.112,668.30951,24.95868ZM392.61093,692.28917a294.31431,294.31431,0,0,0,81.85171-11.02625c50.56128-14.11456,94.23993-40.16748,131.16138-76.9096,58.96155-58.67505,85.89557-131.16461,86.53-213.44074.3089-40.06677-8.76849-78.79287-24.203-115.91372-24.90693-59.90256-64.35334-107.23764-120.50629-140.34633C493.4851,102.837,435.15658,90.63574,372.92425,94.37727c-30.20306,1.81588-59.6398,6.95119-87.94751,17.50563-63.04407,23.50579-111.48152,65.332-148.71957,120.62337-25.58985,37.996-39.3299,80.06363-43.6453,125.76071a325.79009,325.79009,0,0,0,9.6932,117.18112c14.78181,54.3108,43.70608,100.25092,85.52615,138.06476C246.0014,666.11058,314.53537,691.585,392.61093,692.28917ZM838.03741,113.0925A27.25083,27.25083,0,0,0,820.3089,85.15816c-17.44025-6.55249-43.20606-2.69791-49.393,25.29025-2.54028,11.49155-2.2926,24.21039-.46509,35.927,3.69684,23.70059,23.52081,35.27237,46.50269,28.8581,13.39538-3.73868,22.73175-16.61054,20.70337-29.17856h-9.80622a52.60025,52.60025,0,0,0-2.3648,4.91873c-3.98981,11.04849-8.25354,14.46973-18.90064,15.01855-10.19372.52542-18.01868-3.62567-21.32745-13.44741a68.84286,68.84286,0,0,1,.23388-46.26186c3.59125-9.871,11.433-13.5867,22.575-13.04468,9.56616.46538,14.84442,5.74407,17.28668,14.60729a33.89953,33.89953,0,0,0,2.37146,5.24691ZM714.39019,165.34093l-1.195-2.14951c6.47772-7.08188,13.371-13.83432,19.31994-21.33534,6.35071-8.00772,12.88117-16.19038,17.38745-25.26256,5.685-11.44533,1.28962-24.47362-9.10211-29.98309-11.82971-6.27187-24.02606-5.97478-35.3504,1.41066-7.571,4.93757-11.06543,12.42779-10.70227,22.6887l10.68439.48276c.95611-3.053,1.56909-5.3679,2.40069-7.60147,3.05445-8.20328,11.48071-12.226,20.92414-10.06249,6.75012,1.54648,10.7276,7.70846,10.64386,15.92341-.08136,7.97876-4.83436,13.575-9.58661,19.04148-9.75,11.21555-19.72583,22.23708-29.72583,33.232-3.50116,3.84946-5.69751,7.73465-2.855,12.89835h59.35315c-.31226-3.47965-.542-6.0402-.833-9.283Zm-37.0484,9.627V83.69759l-11.67236.53349v90.73683Z" transform="translate(-25.71753 -24.72744)"/>
  <path class="cls-1" d="M471.6914,222.78c-5.55914.6713-11.18384,1.00425-16.66766,2.06479C376.14688,240.09911,312.606,280.03551,264.17138,343.981c-22.71322,29.987-41.2962,62.22632-50.51037,99.06909-12.6026,50.39124-3.59381,95.66822,32.88513,134.12488a12.35,12.35,0,0,1,1.718,2.10218,8.65668,8.65668,0,0,1,.39859,2.38324c-1.32611.28906-2.708.93127-4.03251.82922-33.38385-2.57062-63.79751-12.72125-87.83245-36.99078C138.481,527.00334,128.54,504.26,125.61029,478.266c-4.90023-43.478,9.04644-82.1619,30.4389-118.635,25.54332-43.55014,58.33044-80.58124,102.06345-106.91239,42.28744-25.46078,88.24337-39.02664,137.55166-38.998,23.25159.01345,46.50486,3.37533,69.74573,5.35635,2.16846.18481,4.25281,1.355,6.37622,2.06769Q471.73893,221.96234,471.6914,222.78Z" transform="translate(-25.71753 -24.72744)"/>
  <path class="cls-1" d="M542.91522,249.31227a150.94125,150.94125,0,0,1,35.153,32.04141c8.37415,10.231,11.983,21.13581,11.29364,35.06531-1.9826,40.05744-.16247,80.078,8.01978,119.54877,6.71966,32.41571,16.94733,63.30676,39.30835,88.8244.56262.64209.815,1.55585,1.86285,3.633-2.799-.7392-4.72906-.88593-6.2937-1.71869-14.33984-7.63269-24.96741-19.13495-33.24341-32.85651-15.33587-25.42651-22.27679-53.61212-26.26049-82.63745-1.77051-12.90051-2.65613-25.9216-4.01508-38.88046a25.58548,25.58548,0,0,0-1.161-4.21353c-5.90112-2.62385-7.628,1.563-9.94721,5.14767-15.9732,24.68826-30.81555,50.22562-48.33264,73.7717-30.76611,41.35516-66.21484,78.27942-110.65216,105.56457-24.05084,14.76758-49.68149,25.45185-77.62967,29.99-11.01111,1.788-22.14352,2.87122-33.24762,4.01343-2.525.25971-5.16171-.567-10.04229-1.18378,3.42935-2.27752,4.83377-3.62823,6.50952-4.262C325.52444,565.547,360.714,540.631,392.4588,510.43938c52.55261-49.98127,90.23883-110.04563,118.42016-176.293,10.423-24.502,18.85736-49.84922,28.20441-74.80887C540.12579,256.55391,541.20471,253.784,542.91522,249.31227Z" transform="translate(-25.71753 -24.72744)"/>
  <path class="cls-1" d="M420.083,398.37444c-59.28344,18.61615-120.31958,19.45324-181.92257,18.1903-.35819-2.94806-1.14926-4.69537-.6164-5.81042,5.33869-11.17087,10.59061-22.40906,16.65729-33.18356,1.1572-2.05518,5.84726-3.21634,8.78281-3.011,37.16989,2.60019,74.38095,4.901,111.437,8.69049,13.972,1.4288,27.58429,6.44659,41.32458,9.96854,1.63016.41781,3.03241,1.724,4.54032,2.61834Q420.18445,397.10575,420.083,398.37444Z" transform="translate(-25.71753 -24.72744)"/>
  <path class="cls-1" d="M593.93115,285.295c-1.37494-1.56171-2.853-3.32767-4.42206-5.0087q-15.73846-16.86213-31.53546-33.66937c-2.27869-2.41-5.23779-4.23139-7.27234-6.80643-4.34155-5.495-1.93585-12.45639,4.91772-12.69974A231.93476,231.93476,0,0,1,590.02636,228.31c3.30878.37726,7.35724,4.57114,8.94312,7.99771,7.54718,16.30643,4.70752,32.3631-2.78266,47.97327C595.99487,284.6812,595.15039,284.76857,593.93115,285.295Z" transform="translate(-25.71753 -24.72744)"/>
</svg>
